<svg width="54" height="54" viewBox="0 0 54 54" fill="none" xmlns="http://www.w3.org/2000/svg">
    <rect x="1" y="1" width="52" height="52" rx="26" stroke="#D9D9D9" stroke-width="2"/>
    <path fill-rule="evenodd" clip-rule="evenodd" d="M27 2C13.1875 2 2 13.1875 2 27C2 38.0625 9.15625 47.4063 19.0938 50.7188C20.3438 50.9375 20.8125 50.1875 20.8125 49.5312C20.8125 48.9375 20.7812 46.9688 20.7812 44.875C14.5 46.0312 12.875 43.3438 12.375 41.9375C12.0938 41.2188 10.875 39 9.8125 38.4062C8.9375 37.9375 7.6875 36.7812 9.78125 36.75C11.75 36.7188 13.1562 38.5625 13.625 39.3125C15.875 43.0938 19.4688 42.0312 20.9062 41.375C21.125 39.75 21.7812 38.6562 22.5 38.0312C16.9375 37.4062 11.125 35.25 11.125 25.6875C11.125 22.9688 12.0938 20.7188 13.6875 18.9688C13.4375 18.3438 12.5625 15.7812 13.9375 12.3438C13.9375 12.3438 16.0312 11.6875 20.8125 14.9062C22.8125 14.3438 24.9375 14.0625 27.0625 14.0625C29.1875 14.0625 31.3125 14.3438 33.3125 14.9062C38.0938 11.6562 40.1875 12.3438 40.1875 12.3438C41.5625 15.7812 40.6875 18.3438 40.4375 18.9688C42.0312 20.7188 43 22.9375 43 25.6875C43 35.2812 37.1562 37.4062 31.5938 38.0312C32.5 38.8125 33.2812 40.3125 33.2812 42.6562C33.2812 46 33.25 48.6875 33.25 49.5312C33.25 50.1875 33.7188 50.9688 34.9688 50.7188C44.8438 47.4063 52 38.0312 52 27C52 13.1875 40.8125 2 27 2Z" fill="#1F2328"/>
</svg>
