<svg width="19" height="21" viewBox="0 0 19 21" fill="none" xmlns="http://www.w3.org/2000/svg">
    <path d="M9.0625 0C8.3375 0 7.76786 0.569643 7.76786 1.29464V2.58929H5.8259C5.4634 2.58929 5.17857 2.87411 5.17857 3.23661V5.17857H12.9464V3.23661C12.9464 2.87411 12.6616 2.58929 12.2991 2.58929H10.3571V1.29464C10.3571 0.569643 9.7875 0 9.0625 0ZM0.647322 2.58929C0.284822 2.58929 0 2.87411 0 3.23661V20.067C0 20.4295 0.284822 20.7143 0.647322 20.7143H17.4777C17.8402 20.7143 18.125 20.4295 18.125 20.067V3.23661C18.125 2.87411 17.8402 2.58929 17.4777 2.58929H15.5357V7.76786H2.58929V2.58929H0.647322Z" fill="black"/>
</svg>
