<svg width="24" height="24" viewBox="0 0 24 24" fill="none" xmlns="http://www.w3.org/2000/svg">
<path fill-rule="evenodd" clip-rule="evenodd" d="M8.51058 6.7259H8.51562V9H15.4844V6.7259H15.4894C15.3496 4.92101 13.8408 3.5 12 3.5C10.1592 3.5 8.65039 4.92101 8.51058 6.7259ZM17 9V8.2259V7.83862V7.54066V7V6.7259H16.9926C16.8503 4.09195 14.6695 2 12 2C9.33055 2 7.14969 4.09195 7.00739 6.7259H7V7V7.54066V7.83862V8.2259V9H6C4.89543 9 4 9.89543 4 11V20C4 21.1046 4.89543 22 6 22H18C19.1046 22 20 21.1046 20 20V11C20 9.89543 19.1046 9 18 9H17ZM18.5 11C18.5 10.7239 18.2761 10.5 18 10.5H6C5.72386 10.5 5.5 10.7239 5.5 11V20C5.5 20.2761 5.72386 20.5 6 20.5H18C18.2761 20.5 18.5 20.2761 18.5 20V11ZM14 17C14 18.1046 13.1046 19 12 19C10.8954 19 10 18.1046 10 17C10 15.8954 10.8954 15 12 15C13.1046 15 14 15.8954 14 17Z" fill="black"/>
</svg>
