<svg width="29" height="29" viewBox="0 0 29 29" fill="none" xmlns="http://www.w3.org/2000/svg">
<g clip-path="url(#clip0_881_6168)">
<path fill-rule="evenodd" clip-rule="evenodd" d="M0 3.10714C0 1.39112 1.39112 0 3.10714 0H25.8929C27.6088 0 29 1.39112 29 3.10714V5.95536H0V3.10714ZM0 8.54464H29V19.6786C29 21.3945 27.6088 22.7857 25.8929 22.7857H21.3579L24.9199 26.3479C25.5266 26.9547 25.5266 27.9382 24.9199 28.5449C24.3132 29.1516 23.3297 29.1516 22.7229 28.5449L16.9636 22.7857H16.0536V27.4464C16.0536 28.3044 15.358 29 14.5 29C13.642 29 12.9464 28.3044 12.9464 27.4464V22.7857H12.0364L6.27711 28.5449C5.67041 29.1516 4.68673 29.1516 4.08003 28.5449C3.47333 27.9382 3.47333 26.9547 4.08003 26.3479L7.6422 22.7857H3.10714C1.39112 22.7857 0 21.3945 0 19.6786V8.54464Z" fill="black"/>
</g>
<defs>
<clipPath id="clip0_881_6168">
<rect width="29" height="29" fill="white"/>
</clipPath>
</defs>
</svg>
