<svg width="16" height="16" viewBox="0 0 16 16" fill="none" xmlns="http://www.w3.org/2000/svg">
<g clip-path="url(#clip0_835_1057)">
<path fill-rule="evenodd" clip-rule="evenodd" d="M14.329 6.92154L14.3291 6.92153L14.3094 6.86915L13.0703 3.63688L12.4024 5.68139L12.0646 6.71564H10.9766H5.02395H3.93592L3.59809 5.68139L2.93055 3.63774L1.6903 6.87501L1.68637 6.88527L1.68229 6.89547L1.66437 6.94026C1.47053 7.45288 1.44746 8.0145 1.59874 8.54143C1.75077 9.07095 2.07063 9.53677 2.5102 9.86882C2.51071 9.86921 2.51122 9.8696 2.51174 9.86999L2.51666 9.87367L2.52723 9.88159L2.53765 9.8897L2.54554 9.89584L5.84752 12.3705L5.85224 12.3741L5.85224 12.3741L7.49576 13.6159L7.49618 13.6163L7.99667 13.9947L8.49717 13.6163L8.49759 13.6159L10.1411 12.3741L10.1466 12.3699L10.1466 12.3699L13.4719 9.88111L13.479 9.87554L13.488 9.86882C13.9283 9.53682 14.2488 9.07068 14.4011 8.54067C14.5534 8.01067 14.5293 7.44551 14.3324 6.93039L14.329 6.92154ZM14.3818 11.0737L11.0454 13.5708L9.40188 14.8127L8.40344 15.5677C8.2863 15.6562 8.14349 15.7041 7.99667 15.7041C7.84986 15.7041 7.70705 15.6562 7.5899 15.5677L6.59146 14.8127L4.94794 13.5708L1.63522 11.0881L1.61673 11.0737L1.60851 11.0676C0.908411 10.5395 0.398963 9.79821 0.156984 8.95536C-0.0849959 8.11252 -0.0463896 7.21385 0.266983 6.39486L0.289581 6.33837L2.1913 1.37455L2.20383 1.34186L2.28498 1.13004L2.3083 1.06916L2.46622 0.656966C2.5103 0.545431 2.58873 0.450815 2.69015 0.386814C2.76588 0.33859 2.85184 0.308729 2.94116 0.299612C3.03048 0.290495 3.12069 0.302375 3.2046 0.334304C3.28852 0.366233 3.36381 0.417328 3.42448 0.483514C3.48515 0.5497 3.52951 0.629146 3.55403 0.715516L3.68777 1.12496L3.6933 1.14189L3.77132 1.38075L3.78233 1.41446L5.02395 5.21564H10.9766L12.2182 1.41438L12.2292 1.38075L12.3072 1.14189L12.3127 1.12531L12.4465 0.715516C12.4708 0.629017 12.5151 0.549421 12.5757 0.483108C12.6364 0.416795 12.7117 0.36561 12.7957 0.333655C12.8797 0.3017 12.97 0.289863 13.0593 0.299095C13.1487 0.308327 13.2347 0.338369 13.3104 0.386814C13.4118 0.450815 13.4902 0.545431 13.5343 0.656966L13.691 1.06558L13.7157 1.13008L13.7967 1.3413L13.8093 1.3743L15.712 6.33734L15.7336 6.39486C16.0466 7.21382 16.0849 8.11234 15.8427 8.95498C15.6006 9.79761 15.0911 10.5387 14.391 11.0665L14.3818 11.0737Z" fill="black"/>
</g>
<defs>
<clipPath id="clip0_835_1057">
<rect width="16" height="16" fill="white"/>
</clipPath>
</defs>
</svg>
